<?xml version="1.0" encoding="UTF-8" standalone="no"?>
<!-- Created with Inkscape (http://www.inkscape.org/) -->

<svg
   xmlns:dc="http://purl.org/dc/elements/1.1/"
   xmlns:cc="http://creativecommons.org/ns#"
   xmlns:rdf="http://www.w3.org/1999/02/22-rdf-syntax-ns#"
   xmlns:svg="http://www.w3.org/2000/svg"
   xmlns="http://www.w3.org/2000/svg"
   xmlns:sodipodi="http://sodipodi.sourceforge.net/DTD/sodipodi-0.dtd"
   xmlns:inkscape="http://www.inkscape.org/namespaces/inkscape"
   version="1.1"
   id="svg2"
   width="811.3291"
   height="1238.3451"
   viewBox="0 0 811.32911 1238.345"
   sodipodi:docname="Arc-39 logo.svg"
   inkscape:version="0.92.1 r15371">
  <metadata
     id="metadata8">
    <rdf:RDF>
      <cc:Work
         rdf:about="">
        <dc:format>image/svg+xml</dc:format>
        <dc:type
           rdf:resource="http://purl.org/dc/dcmitype/StillImage" />
        <dc:title></dc:title>
      </cc:Work>
    </rdf:RDF>
  </metadata>
  <defs
     id="defs6" />
  <sodipodi:namedview
     pagecolor="#ffffff"
     bordercolor="#666666"
     borderopacity="1"
     objecttolerance="10"
     gridtolerance="10"
     guidetolerance="10"
     inkscape:pageopacity="0"
     inkscape:pageshadow="2"
     inkscape:window-width="1920"
     inkscape:window-height="1025"
     id="namedview4"
     showgrid="false"
     inkscape:zoom="0.64681085"
     inkscape:cx="338.45341"
     inkscape:cy="610.52164"
     inkscape:window-x="0"
     inkscape:window-y="27"
     inkscape:window-maximized="1"
     inkscape:current-layer="svg2"
     fit-margin-top="0"
     fit-margin-left="0"
     fit-margin-right="0"
     fit-margin-bottom="0"
     inkscape:pagecheckerboard="true" />
  <path
     style="fill:#00ceff;fill-opacity:1"
     d="m 234.55993,981.691 c -8.66348,-2.7021 -12.17026,-8.59159 -16.26569,-27.31742 -1.75023,-8.00271 -2.18383,-13.9403 -2.4964,-34.18488 -0.20804,-13.475 -0.71273,-44.075 -1.12153,-68 l -0.74328,-43.5 -4.21713,6.35418 c -6.60597,9.95357 -8.54759,16.00427 -9.05365,28.214 -0.48808,11.77589 1.23196,20.96201 4.88582,26.09338 1.15673,1.62447 1.84155,3.21519 1.52182,3.53491 -0.31973,0.31973 -6.26969,-0.58038 -13.22214,-2.00023 -20.03622,-4.09188 -31.78615,-10.76385 -42.41586,-24.08501 -2.60406,-3.26341 -5.36136,-5.63951 -6.91495,-5.95895 -5.46594,-1.12385 -18.4308,-14.53327 -34.04722,-35.21467 -8.18379,-10.83811 -15.547002,-29.18929 -19.131758,-47.68172 -4.129915,-21.30471 -4.48629,-61.10926 -0.79912,-89.25589 2.452221,-18.71944 12.588948,-61.2179 18.530318,-77.68876 8.32117,-23.06822 22.68541,-52.12487 41.92668,-84.81124 3.39953,-5.775 7.4269,-12.97243 8.94972,-15.99429 2.46429,-4.89013 26.7165,-64.50817 38.03747,-93.50571 2.36199,-6.05 6.49903,-16.175 9.19341,-22.5 4.88934,-11.4776 14.63351,-36.23814 32.86025,-83.5 9.18363,-23.81309 18.81958,-52.3004 44.98782,-133 23.32937,-71.944869 27.3954,-83.454139 35.66823,-100.962199 5.1562,-10.912241 8.75829,-20.074127 10.09914,-25.68707 l 2.08423,-8.72487 4.19399,-1.056059 c 3.66501,-0.922859 4.8496,-0.752315 9.39183,1.352131 l 5.19783,2.40819 5.13663,-3.276827 c 7.58476,-4.838562 18.61659,-9.404576 29.50239,-12.2108821 8.91024,-2.297017 10.91179,-2.44831 26.63425,-2.013246 14.91212,0.41264 24.95679,1.72679 30.5,3.9903331 1.03485,0.422577 2.66314,-1.064282 5.25089,-4.7948181 3.18175,-4.586856 4.39563,-5.542028 8,-6.29501898 4.0548,-0.847091 4.47776,-0.699158 9.24911,3.23498498 2.75,2.267468 7.33703,5.810154 10.19341,7.8726361 9.91072,7.156164 13.03337,12.031391 35.0123,54.662716 13.62316,26.42411 18.43126,36.030409 26.52729,52.999999 7.25338,15.20337 19.83265,38.85154 38.48156,72.34276 10.9881,19.7333 21.50061,40.49152 42.11305,83.15724 8.2371,17.05 22.27081,46.075 31.186,64.5 29.15394,60.25231 44.67367,98.01064 54.29017,132.08384 6.76448,23.96791 9.91192,40.06088 13.18518,67.41616 5.83354,48.752 7.60205,76.40428 5.66004,88.5 -0.57398,3.575 -1.78257,11.14667 -2.68575,16.82593 -1.86022,11.6971 -5.0145,22.33372 -13.33451,44.96544 -3.17619,8.63975 -7.94011,21.78363 -10.58648,29.20863 -2.64638,7.425 -9.03721,21.87373 -14.20185,32.1083 -7.66635,15.19211 -10.88903,20.418 -17.55423,28.46592 -11.20442,13.52883 -22.99393,25.10162 -37.78618,37.09159 -6.875,5.57258 -15.49464,13.21497 -19.15476,16.98308 -9.69063,9.97655 -23.37186,27.58279 -28.03256,36.07483 -4.3788,7.97841 -6.44956,9.28907 -2.81545,1.78201 1.97392,-4.07759 2.17591,-5.75481 1.78258,-14.80219 -0.57496,-13.22513 -2.77684,-19.54857 -12.7805,-36.70354 -10.6831,-18.32011 -13.83909,-25.38599 -15.95207,-35.71479 l -1.79721,-8.78521 -1.35817,4.5 c -0.79875,2.64645 -1.36512,9.23685 -1.37502,16 -0.0167,11.43206 0.006,11.54236 3.815,18.67003 2.10752,3.94351 6.30777,9.90601 9.33391,13.25 3.02613,3.34398 5.16837,6.07997 4.76052,6.07997 -1.86389,0 -11.50458,-8.53423 -16.05794,-14.21498 -16.26993,-20.29826 -21.28215,-34.90286 -20.00314,-58.28502 0.81628,-14.92259 3.82627,-26.97705 15.10684,-60.5 12.81891,-38.09449 13.68539,-41.35491 19.42284,-73.08501 10.27117,-56.8032 11.28952,-68.35904 8.67277,-98.41499 -3.07899,-35.36518 -5.60958,-54.3658 -9.72248,-73 -1.09255,-4.95 -5.09426,-24.33804 -8.89269,-43.08453 -3.79844,-18.74648 -8.44241,-40.57148 -10.31995,-48.5 -1.87754,-7.92851 -5.50627,-23.19047 -8.06385,-33.91547 -2.55758,-10.725 -7.13678,-30.75 -10.176,-44.5 -3.03923,-13.75 -8.23019,-35.8 -11.53549,-49 -3.30529,-13.2 -7.75685,-32.325 -9.89236,-42.5 -7.94044,-37.83363 -13.04669,-60.738 -15.38272,-69 -1.32182,-4.675 -3.39806,-12.66964 -4.61386,-17.76586 -1.2158,-5.09622 -2.56976,-9.487859 -3.0088,-9.759209 -0.43904,-0.27134 -1.33964,1.1983 -2.00134,3.265859 -3.2968,10.30134 -9.41993,19.76265 -19.25944,29.75921 l -9.84289,10 2.65037,5.16532 c 1.4577,2.84092 5.77543,9.02842 9.59494,13.75 3.81952,4.72157 6.7105,8.58468 6.42442,8.58468 -0.28609,0 -3.38403,-1.35311 -6.88432,-3.00692 -6.03224,-2.8501 -13.47367,-9.51834 -17.84748,-15.99308 l -1.6888,-2.5 -0.0524,4.75 c -0.048,4.3453 0.14948,4.75 2.31759,4.75 1.96339,0 2.59111,0.7896 3.65851,4.60197 0.84698,3.02511 2.80983,6.14518 5.72845,9.10571 4.01099,4.06859 4.92658,4.51995 9.47614,4.67151 4.52597,0.15076 5.3901,0.5706 8.52998,4.14428 1.9216,2.18709 5.04008,7.19506 6.92997,11.12882 4.84112,10.0767 4.84314,17.96197 0.009,36.34771 -1.95211,7.425 -3.86618,16.30636 -4.25348,19.73636 -0.63776,5.64815 -0.49988,6.40272 1.46184,8 2.12365,1.72915 2.17221,2.36986 2.48313,32.76364 0.17442,17.05 0.82529,34.375 1.44638,38.5 0.6211,4.125 1.84262,13.35 2.7145,20.5 0.87188,7.15 2.22478,15.925 3.00644,19.5 0.78166,3.575 3.91624,18.82687 6.96573,33.89305 3.04948,15.06617 7.52874,35.54117 9.95389,45.5 2.42516,9.95882 5.99288,25.08195 7.92828,33.60695 1.93539,8.525 3.94915,16.85 4.47503,18.5 0.52588,1.65 1.24259,5.43803 1.5927,8.41784 0.35011,2.97981 1.28605,6.97227 2.07986,8.87212 2.21446,5.29997 1.78199,7.19752 -2.58781,11.3544 -3.9719,3.77838 -4.00861,3.87817 -2.5,6.79551 2.85151,5.51421 1.44224,9.06013 -3.60081,9.06013 -1.95512,0 -3.37003,-0.9241 -4.97616,-3.25 -1.23434,-1.7875 -2.36004,-3.40756 -2.50156,-3.60014 -0.14152,-0.19257 -0.69337,-0.0806 -1.22634,0.24877 -0.60541,0.37416 -0.44276,2.3476 0.43347,5.25906 1.98802,6.60571 1.77066,9.05498 -0.96252,10.84583 -3.74933,2.45665 -7.14566,0.5385 -10.24851,-5.78809 -2.35513,-4.80203 -2.89417,-5.29453 -5.39331,-4.92773 -2.62382,0.38509 -2.74909,0.63609 -2.27585,4.55991 0.27545,2.28382 0.84671,5.80785 1.26946,7.8312 0.93656,4.48246 -0.65873,8.19481 -3.71022,8.63398 -4.50323,0.6481 -5.89307,-1.26548 -7.82265,-10.77049 l -1.83537,-9.0423 h -4.1803 -4.1803 l -0.68622,5.17297 c -0.85754,6.46444 -2.01598,8.66535 -5.19772,9.87504 -4.86473,1.84957 -6.25841,-0.0989 -6.5835,-9.20408 l -0.29022,-8.12876 -4.21396,-1.24144 c -2.31768,-0.6828 -6.22281,-2.41871 -8.67807,-3.85759 -2.45526,-1.43888 -4.6692,-2.61614 -4.91986,-2.61614 -0.68934,0 1.89149,12.835 5.73071,28.5 4.49324,18.33353 6.52068,28.32311 12.58329,62 2.77235,15.4 6.14787,33.625 7.50116,40.5 1.35328,6.875 3.37433,20.2536 4.49122,29.73021 2.35978,20.02239 3.23836,22.44169 18.61872,51.26979 5.13513,9.625 10.9925,21.325 13.0164,26 6.08914,14.06535 24.08571,69.08712 28.36501,86.72169 2.20107,9.07039 5.55244,20.38112 7.44749,25.13496 1.89505,4.75384 3.72567,11.34335 4.06804,14.64335 0.58469,5.63567 1.54388,8.97263 3.59302,12.5 0.47927,0.825 1.5182,2.64958 2.30875,4.05461 1.26764,2.25297 3.08548,18.90957 3.85776,35.34803 0.22462,4.78136 0.14382,4.93196 -3.26653,6.08816 l -3.49686,1.18552 0.32561,7.08959 c 0.24886,5.41838 -0.1407,8.14376 -1.6526,11.56169 -1.80193,4.0735 -2.45497,4.6049 -7.32875,5.9636 -13.08518,3.6479 -27.75939,2.7513 -37.85055,-2.3125 -7.2018,-3.614 -8.9685,-5.72811 -10.60747,-12.69345 -2.08167,-8.84677 -1.71511,-12.80107 2.00952,-21.67754 17.24478,-41.09749 17.42117,-42.48395 8.70807,-68.4492 -12.99509,-38.72572 -29.44744,-74.64306 -48.38592,-105.63195 -10.89724,-17.83106 -16.17804,-28.68038 -21.40594,-43.97811 -2.45257,-7.17665 -6.24622,-17.02814 -8.43033,-21.8922 -4.44777,-9.90525 -7.47673,-20.98958 -15.48216,-56.65625 -6.42341,-28.61825 -13.40215,-56.18167 -17.09023,-67.5 -3.59974,-11.04722 -12.05801,-33.95882 -14.7668,-40 -1.23307,-2.75 -3.97291,-9.64225 -6.08854,-15.31611 -3.44839,-9.24816 -4.05952,-10.24802 -5.9034,-9.65839 -8.49178,2.71547 -13.22014,3.4745 -21.64437,3.4745 h -9.65172 l -2.13408,10.25 c -3.03252,14.56526 -8.82791,55.81891 -10.07254,71.69989 -2.38878,30.48009 -1.05616,65.28851 3.56236,93.05011 3.44664,20.71743 11.88882,48.28622 18.98579,62 2.13472,4.125 4.05145,7.95 4.25941,8.5 0.20796,0.55 -2.19354,-1.475 -5.33667,-4.5 -6.38107,-6.14127 -13.62535,-16.28844 -18.43951,-25.82851 -3.37819,-6.69446 -10.04756,-25.63481 -10.14053,-28.79814 -0.0303,-1.03034 -0.93178,1.50165 -2.00331,5.62665 -2.97327,11.4459 -6.85993,18.20366 -19.45568,33.82774 l -11.55068,14.32774 -3.52894,15.17226 c -8.39443,36.0909 -12.05842,57.24966 -13.47499,77.81513 -1.63255,23.70114 0.37169,44.11457 4.97174,50.63777 1.0547,1.49565 2.2144,4.88255 2.57711,7.52645 1.17724,8.58123 5.1374,19.92865 11.45497,32.823 6.08804,12.42587 6.1878,12.76468 6.1698,20.95348 -0.0215,9.77863 -1.30525,12.23013 -8.16533,15.59243 -10.16284,4.9811 -23.1153,6.5389 -31.81273,3.8263 z m 189.8731,-467.6185 c 0,-1.64899 0.46236,-4.88493 1.02746,-7.19098 0.97686,-3.98634 3.86941,-31.82775 3.37891,-32.52272 -0.45543,-0.64528 -5.9657,3.32346 -9.74538,7.01903 l -3.839,3.75359 1.08149,5.27864 c 4.53598,22.1397 8.09652,32.54553 8.09652,23.66244 z m 7.64178,-82.57536 c -0.2798,-0.27979 -0.97169,-0.22258 -1.53754,0.12714 -0.69151,0.42737 -0.63136,1.5179 0.18347,3.32621 l 1.21229,2.69037 0.32524,-2.8175 c 0.17889,-1.54963 0.0963,-3.04643 -0.18346,-3.32622 z m 1.81748,-91.30844 c -0.35914,-16.225 -0.9469,-35.53395 -1.30612,-42.90877 l -0.65314,-13.40877 -4.44364,6.40877 c -7.04939,10.16689 -15.32505,20.85318 -21.81004,28.16313 -7.65416,8.62785 -8.30015,11.69331 -4.62171,21.93165 4.08464,11.3689 12.77869,27.85527 25.87539,49.06701 l 6,9.71775 0.80613,-14.73538 c 0.44337,-8.10447 0.51228,-28.01039 0.15313,-44.23539 z M 335.63412,211.85859 c 2.00341,-10.55879 6.14542,-14.16972 20.46022,-17.83683 12.04096,-3.08461 20.57869,-7.93267 29.0075,-16.47161 4.04986,-4.10277 7.76838,-7.20929 8.26337,-6.90336 0.49499,0.30592 2.06275,0.11414 3.4839,-0.42619 2.16671,-0.82377 2.58392,-1.60982 2.58392,-4.86822 v -3.88582 l -4.02799,1.07513 c -3.81933,1.01944 -4.57222,0.80446 -14.53443,-4.15008 -12.64303,-6.28779 -18.86198,-11.6542 -20.96267,-18.08894 l -1.50629,-4.61397 0.51936,4.19906 c 0.79952,6.46414 8.97905,19.30094 12.29844,19.30094 2.11791,0 8.21358,5.93432 8.21358,7.99617 0,2.31025 -2.02984,4.00383 -4.79879,4.00383 -2.41382,0 -8.17541,-5.15016 -8.22903,-7.35576 -0.0153,-0.62933 -1.3653,-2.9119 -3,-5.07238 l -2.97218,-3.92814 -0.0333,9.92814 c -0.0321,9.58628 -0.0924,9.85119 -1.75,7.69331 -0.9442,-1.22916 -5.31673,-7.15464 -9.71673,-13.16775 -7.59587,-10.38063 -8.03794,-10.79815 -8.75111,-8.26517 -0.41311,1.46726 -2.14726,14.59275 -3.85366,29.16775 -1.70641,14.575 -3.70425,31.225 -4.43965,37 -0.7354,5.775 -1.31498,12.75 -1.28795,15.5 0.0508,5.17118 0.27993,4.22302 5.03346,-20.83011 z M 457.43303,13.688701 c 0,-2.475 -0.18055,-4.5000001 -0.40122,-4.5000001 -0.22068,0 -1.32435,1.5645751 -2.45261,3.4768331 -1.90695,3.232037 -1.93151,3.546731 -0.34878,4.469591 2.82607,1.647825 3.20261,1.242613 3.20261,-3.446424 z"
     id="path4487"
     inkscape:connector-curvature="0" />
  <text
     xml:space="preserve"
     style="font-style:normal;font-variant:normal;font-weight:bold;font-stretch:normal;font-size:266.66665649px;line-height:125%;font-family:Aller;-inkscape-font-specification:'Aller Bold';text-align:center;letter-spacing:0px;word-spacing:0px;text-anchor:middle;fill:#ff1177;fill-opacity:1;stroke:#ffffff;stroke-width:10;stroke-linecap:butt;stroke-linejoin:miter;stroke-miterlimit:4;stroke-dasharray:none;stroke-opacity:1"
     x="410.40622"
     y="1213.3451"
     id="text4533"><tspan
       sodipodi:role="line"
       id="tspan4531"
       x="410.40622"
       y="1213.3451">Arc-39</tspan></text>
</svg>
